<svg width="172" height="180" viewBox="0 0 172 180" fill="none" xmlns="http://www.w3.org/2000/svg">
<path d="M76.6037 179.138C76.6212 179.131 76.6416 179.125 76.66 179.118C76.6189 179.112 76.5778 179.105 76.5368 179.1L76.6037 179.138Z" fill="#020202"/>
<path d="M6.5723 123.212C6.56222 123.174 6.55378 123.135 6.54326 123.098L6.43292 123.04L6.54212 123.18C6.55203 123.191 6.56238 123.201 6.5723 123.212Z" fill="#020202"/>
<path d="M66.0002 120.583C65.3011 122.086 64.7597 123.283 64.2329 124.767C63.5733 126.61 63.1943 127.921 63.1943 129.187C63.167 129.701 63.2475 130.215 63.4306 130.697C63.6137 131.178 63.8954 131.615 64.2575 131.981C64.5271 132.246 64.8466 132.454 65.1973 132.593C65.548 132.733 65.923 132.801 66.3004 132.794C68.2006 132.701 69.0078 131.745 69.0078 129.591C69.0079 128.27 68.1169 125.811 66.0002 120.583ZM66.0002 120.583C65.3011 122.086 64.7597 123.283 64.2329 124.767C63.5733 126.61 63.1943 127.921 63.1943 129.187C63.167 129.701 63.2475 130.215 63.4306 130.697C63.6137 131.178 63.8954 131.615 64.2575 131.981C64.5271 132.246 64.8466 132.454 65.1973 132.593C65.548 132.733 65.923 132.801 66.3004 132.794C68.2006 132.701 69.0078 131.745 69.0078 129.591C69.0079 128.27 68.1169 125.811 66.0002 120.583ZM66.0002 120.583C65.3011 122.086 64.7597 123.283 64.2329 124.767C63.5733 126.61 63.1943 127.921 63.1943 129.187C63.167 129.701 63.2475 130.215 63.4306 130.697C63.6137 131.178 63.8954 131.615 64.2575 131.981C64.5271 132.246 64.8466 132.454 65.1973 132.593C65.548 132.733 65.923 132.801 66.3004 132.794C68.2006 132.701 69.0078 131.745 69.0078 129.591C69.0079 128.27 68.1169 125.811 66.0002 120.583ZM115.551 72.9161C109.715 72.9086 103.974 74.3946 98.8733 77.2328V116.547L116.811 72.9259C116.398 72.9161 115.969 72.9161 115.551 72.9161ZM81.0682 107.44C81.076 112.144 82.0431 116.797 83.9104 121.113C85.7777 125.43 88.5058 129.319 91.9275 132.543C92.4789 131.952 92.981 130.892 93.6159 129.335V129.33L93.8473 128.768V80.6331C89.8552 83.8647 86.6357 87.9493 84.4246 92.5878C82.2134 97.2262 81.0667 102.301 81.0682 107.44V107.44ZM66.0002 120.583C65.3011 122.086 64.7597 123.283 64.233 124.767C63.5733 126.61 63.1943 127.921 63.1943 129.187C63.167 129.701 63.2475 130.216 63.4306 130.697C63.6137 131.178 63.8954 131.615 64.2576 131.981C64.5271 132.246 64.8466 132.454 65.1973 132.593C65.5481 132.733 65.923 132.801 66.3004 132.794C68.2006 132.701 69.0078 131.745 69.0078 129.591C69.0079 128.27 68.1169 125.811 66.0002 120.583L66.0002 120.583ZM66.0002 120.583C65.3011 122.086 64.7597 123.283 64.233 124.767C63.5733 126.61 63.1943 127.921 63.1943 129.187C63.167 129.701 63.2475 130.216 63.4306 130.697C63.6137 131.178 63.8954 131.615 64.2576 131.981C64.5271 132.246 64.8466 132.454 65.1973 132.593C65.5481 132.733 65.923 132.801 66.3004 132.794C68.2006 132.701 69.0078 131.745 69.0078 129.591C69.0079 128.27 68.1169 125.811 66.0002 120.583L66.0002 120.583ZM81.0682 107.44C81.076 112.144 82.0431 116.797 83.9104 121.113C85.7777 125.43 88.5058 129.319 91.9275 132.543C92.4789 131.952 92.981 130.892 93.6159 129.335V129.33L93.8473 128.768V80.6331C89.8552 83.8647 86.6357 87.9493 84.4246 92.5878C82.2134 97.2262 81.0667 102.301 81.0682 107.44V107.44ZM115.551 72.9161C109.715 72.9086 103.974 74.3946 98.8733 77.2328V116.547L116.811 72.9259C116.398 72.9161 115.969 72.9161 115.551 72.9161ZM128.778 48.0995L119.189 71.4525C128.757 72.4015 137.568 77.0775 143.723 84.4718L128.778 48.0995ZM66.0002 120.583C65.3011 122.086 64.7597 123.283 64.2329 124.767C63.5733 126.61 63.1943 127.921 63.1943 129.187C63.167 129.701 63.2475 130.216 63.4306 130.697C63.6137 131.178 63.8954 131.615 64.2575 131.981C64.5271 132.246 64.8466 132.454 65.1973 132.593C65.548 132.733 65.923 132.801 66.3004 132.794C68.2006 132.701 69.0078 131.745 69.0078 129.591C69.0079 128.27 68.1169 125.811 66.0002 120.583V120.583ZM81.0682 107.44C81.0759 112.144 82.0431 116.797 83.9104 121.113C85.7776 125.43 88.5058 129.319 91.9275 132.543C92.4788 131.952 92.9809 130.892 93.6159 129.335V129.33L93.8473 128.768V80.6331C89.8552 83.8647 86.6357 87.9493 84.4246 92.5878C82.2134 97.2262 81.0667 102.301 81.0682 107.44H81.0682ZM115.551 72.9161C109.715 72.9086 103.974 74.3946 98.8733 77.2328V116.547L116.811 72.9259C116.398 72.9161 115.969 72.9161 115.551 72.9161ZM128.778 48.0995L119.189 71.4525C128.757 72.4015 137.568 77.0775 143.723 84.4718L128.778 48.0995ZM66.0002 120.583C65.3011 122.086 64.7597 123.283 64.2329 124.767C63.5733 126.61 63.1943 127.921 63.1943 129.187C63.167 129.701 63.2475 130.216 63.4306 130.697C63.6137 131.178 63.8954 131.615 64.2575 131.981C64.5271 132.246 64.8466 132.454 65.1973 132.593C65.548 132.733 65.923 132.801 66.3004 132.794C68.2006 132.701 69.0078 131.745 69.0078 129.591C69.0079 128.27 68.1169 125.811 66.0002 120.583V120.583ZM81.0682 107.44C81.0759 112.144 82.0431 116.797 83.9104 121.113C85.7776 125.43 88.5058 129.319 91.9275 132.543C92.4788 131.952 92.9809 130.892 93.6159 129.335V129.33L93.8473 128.768V80.6331C89.8552 83.8647 86.6357 87.9493 84.4246 92.5878C82.2134 97.2262 81.0667 102.301 81.0682 107.44H81.0682ZM115.551 72.9161C109.715 72.9086 103.974 74.3946 98.8733 77.2328V116.547L116.811 72.9259C116.398 72.9161 115.969 72.9161 115.551 72.9161ZM128.778 48.0995L119.189 71.4525C128.757 72.4015 137.568 77.0775 143.723 84.4718L128.778 48.0995ZM161.026 125.437C160.992 125.688 160.947 125.94 160.913 126.186L161.248 126.999C161.364 126.929 161.47 126.842 161.563 126.743L161.026 125.437ZM164.521 121.8C164.427 121.515 164.31 121.238 164.172 120.972L164.536 121.859L164.521 121.8ZM171.014 85.7629C170.684 85.8664 170.492 86.2261 170.463 87.0294C170.448 87.4187 170.374 87.7882 170.305 88.3697C170.033 87.3466 169.856 86.3009 169.773 85.2455C169.665 84.2254 169.577 83.2201 169.503 82.2198C169.439 81.4461 169.522 80.6528 169.493 79.8692C169.966 79.8101 170.433 80.1008 170.551 81.4166C170.601 81.9241 170.566 82.4514 170.635 82.9442C170.66 83.1462 170.916 83.4863 170.955 83.4271C171.096 83.1926 171.166 82.9221 171.157 82.6485L170.955 80.5986C170.852 79.9185 170.733 79.2434 170.596 78.5831C170.349 77.3856 169.872 77.1146 169.36 77.1786C168.976 75.853 168.459 74.5472 168.06 73.3842C168.179 72.167 168.513 71.8369 168.932 71.5855C169.291 71.3736 169.375 70.6197 169.148 69.6538C168.961 68.8358 168.73 68.0276 168.577 67.456C167.888 66.6577 167.612 67.9734 167.061 66.7957C166.392 65.3715 167.125 65.406 167.258 64.7703C167.406 63.8583 167.468 62.9344 167.445 62.0107C167.46 62.0284 167.477 62.0449 167.494 62.06C167.48 62.0107 167.465 61.9615 167.445 61.9122L167.435 62.0009C166.126 59.0048 166.141 58.9851 164.186 57.5806C164.225 56.933 164.205 56.2832 164.127 55.6391C163.91 54.6865 163.624 53.751 163.271 52.84C163.208 52.6773 163.134 52.5193 163.049 52.367C162.72 51.7706 162.459 51.1392 162.271 50.4845C162.095 49.928 162.002 49.3485 161.996 48.7647C161.984 48.3995 161.892 48.0414 161.726 47.716C161.56 47.3905 161.324 47.1059 161.036 46.8823C161.218 47.9763 161.267 48.8731 160.608 48.947C160.397 48.9926 160.196 49.0725 160.012 49.1836C159.347 47.5229 158.594 45.9115 157.777 44.3001C157.353 43.5499 157.091 42.7188 157.009 41.8608C156.851 41.265 156.569 40.7092 156.182 40.2297C155.607 39.5185 154.977 38.8544 154.297 38.2438L154.277 38.1846L153.775 36.0016C153.76 35.9917 153.745 35.9868 153.731 35.9769C152.903 34.3019 151.794 32.7818 150.452 31.4828C149.588 31.4 148.748 31.1471 147.981 30.7387C147.346 30.3494 146.75 29.689 145.613 28.5704L143.634 26.5894L141.567 24.7021L140.528 23.7658L139.45 22.8738L137.289 21.0949C134.344 18.8023 131.258 16.6973 128.049 14.7922C127.316 14.3432 126.547 13.9543 125.751 13.6292C125.549 13.5405 125.337 13.6341 125.13 13.6489C126.284 14.9829 127.718 16.0448 129.329 16.7584C130.532 17.3774 131.702 18.0583 132.834 18.7985C133.712 19.3435 134.521 19.9939 135.241 20.7351C135.889 21.3765 136.434 22.1146 136.856 22.9231C135.779 22.1958 134.665 21.5247 133.518 20.9125C132.017 20.1771 130.608 19.2674 129.319 18.2022C127.604 16.8883 125.76 15.7508 123.816 14.807C122.497 14.0481 121.128 13.373 119.775 12.6831C117.237 11.3654 114.602 10.2435 111.894 9.3272C109.176 8.41555 106.405 7.76015 103.609 7.03576C101.979 6.60703 100.36 6.30644 98.7206 5.86786C96.747 5.50487 94.7528 5.26459 92.7494 5.14839L90.4753 4.902L88.1911 4.7591C86.6745 4.6531 85.1519 4.66793 83.6377 4.80345C83.0273 4.86258 82.3333 4.70489 81.6785 4.71474C79.7341 4.69011 79.0154 3.95586 77.8733 3.46307C73.6744 3.75382 73.4184 3.80802 73.1575 4.13819C73.8811 4.39936 75.5302 4.1579 75.7124 4.94635C74.0925 5.10207 72.4629 5.12843 70.8389 5.0252L70.9128 5.04984C69.8861 4.84764 68.8303 4.84262 67.8017 5.03505C66.7333 5.19688 65.6774 5.43233 64.6414 5.73973C62.7215 6.31629 60.8264 6.86328 58.9164 7.49897C58.1765 7.75939 57.4601 8.08251 56.7751 8.46483C56.0068 8.90959 55.0955 9.03688 54.235 8.81963C54.9931 8.34163 55.7216 7.87842 56.4452 7.42013C56.0236 7.39951 55.6011 7.43766 55.19 7.53347C54.0824 7.94741 53.029 8.47469 51.9411 8.89355C50.355 9.45183 48.8347 10.1822 47.4074 11.0717C46.3736 11.796 45.0839 12.3677 43.9566 13.0773C43.2772 13.5208 42.5154 13.8225 41.7168 13.9643C41.3427 14.0284 41.067 13.9101 40.5896 14.3585C39.3119 15.5828 37.95 16.7157 36.5137 17.7489C35.0861 18.8774 33.5601 19.9221 32.2113 21.1195C31.1973 21.9622 30.1586 22.8246 29.115 23.6919C28.0715 24.5542 26.9836 25.3624 25.9646 26.1903C25.1031 26.8802 24.2367 27.5257 23.4589 28.255C22.6737 28.9923 21.9417 29.7844 21.2684 30.6253C20.7909 31.2216 20.1805 31.8228 19.6193 32.419C20.018 32.5965 20.4168 32.7837 20.9336 33.0202C19.0482 34.3705 17.4829 36.0016 15.7747 37.2434C15.5475 37.4236 15.3649 37.6539 15.2411 37.9163C15.1173 38.1786 15.0556 38.4661 15.0609 38.7562C15.0954 39.0322 15.1545 39.2786 15.2037 39.5348C14.9319 39.9844 14.6309 40.4157 14.3028 40.8259C13.378 41.8798 12.5244 42.9943 11.748 44.1621C10.9982 45.3488 10.3113 46.5743 9.69034 47.8333C9.20792 48.8731 8.64681 49.9079 8.11511 50.9379C7.44071 52.2585 6.84996 53.6285 6.2199 54.9688C5.63408 56.3338 5.1074 57.7186 4.61514 59.0984C2.96114 64.0607 2.016 69.1117 0.947763 74.2416C0.878171 74.8132 0.884789 75.3916 0.96745 75.9614C1.13288 75.5609 1.24382 75.1399 1.29727 74.7098C1.37111 74.2416 1.44495 73.7685 1.51879 73.2905C1.83876 71.5313 2.0898 71.2307 3.29092 71.004C3.05463 72.0241 2.80851 73.0343 2.62637 74.0445C2.44424 74.9808 2.45408 75.9368 2.35074 76.8829C2.24736 77.9375 1.84862 79.1399 2.40488 79.9086C2.7888 78.4648 3.49278 77.154 3.17771 75.5228C3.1541 75.2276 3.21022 74.9315 3.34019 74.6654C4.03916 73.6059 4.24101 72.2113 4.74799 70.4817C4.79726 71.8861 4.95482 72.9357 5.04339 73.9607L5.02863 73.9558C4.68404 74.8132 4.37881 75.6066 4.876 76.2768C5.42246 77.0308 5.42246 77.1786 4.7825 78.041C4.4395 78.4476 4.21321 78.9398 4.12779 79.4651L3.6404 83.1265C3.48783 84.6887 2.68544 85.211 2.28668 86.4232C1.91082 87.6257 1.97898 88.9233 2.47873 90.0797C2.60672 89.4982 2.6608 88.6999 2.86269 88.4535C3.27118 87.9558 3.66502 87.3694 4.08842 86.8618C4.48407 86.3601 4.99605 85.9626 5.57992 85.7038C5.57506 86.6006 5.60943 87.3152 5.65869 88.0346L5.6242 87.9509V88.0248C5.42413 87.9676 5.21692 87.9394 5.00887 87.941C4.73816 87.9706 4.54122 88.4486 4.65936 88.7442C4.74305 88.9463 4.88088 89.173 4.99899 89.168C5.21452 89.1248 5.41996 89.0412 5.60452 88.9216V88.9906L5.63896 88.9019C5.8817 90.2977 6.02483 91.709 6.06728 93.1251V93.1842C6.07708 93.6622 6.07708 94.1402 6.05251 94.633C6.05744 95.5102 6.11152 96.4169 6.19034 97.3039C6.55954 100.734 6.98282 104.104 7.20924 107.529C7.7015 108.465 8.16918 109.372 8.70078 110.244C9.30134 112.427 9.98071 114.596 10.783 116.754C11.1227 117.666 11.4919 118.553 11.8611 119.44C11.8415 119.4 11.8218 119.366 11.8021 119.326C11.3745 118.41 10.6839 117.641 9.81825 117.119C9.68534 117.809 10.0595 118.528 10.3401 119.193L11.0834 120.864L11.9005 122.49C12.0039 122.702 12.0433 123.145 11.9646 123.21C11.8819 123.292 11.7725 123.342 11.6561 123.351C11.5397 123.36 11.4239 123.328 11.3295 123.259C10.921 122.883 10.5797 122.439 10.3204 121.948C9.93363 121.112 9.59988 120.253 9.32112 119.376C9.07007 118.705 8.75999 118.513 8.18402 118.735C8.77477 120.169 9.30634 121.638 10.0005 123.032L10.9555 125.053C11.2803 125.718 11.6544 126.363 11.999 127.024L13.0623 128.985L14.2044 130.902C14.6572 131.685 14.9871 132.543 15.4154 133.341C15.4547 133.42 15.4006 133.568 15.3365 133.583C15.2794 133.582 15.2232 133.568 15.1721 133.542C15.121 133.517 15.0763 133.48 15.0412 133.435C14.6031 132.804 14.2142 132.144 13.8352 131.469C12.5405 129.305 11.3739 127.122 9.78388 125.506C9.1882 125.6 8.72059 125.851 7.9379 124.737C7.51573 124.2 7.06031 123.69 6.57434 123.21C6.71996 123.931 6.92411 124.64 7.18474 125.329C9.12339 129.671 11.3911 133.859 13.9681 137.855C16.5896 141.86 19.622 145.579 23.0158 148.953C24.0496 150.012 25.1768 151.027 26.1712 152.087C28.2019 154.257 30.5168 156.142 33.053 157.69C35.0811 158.902 36.7253 160.449 38.4187 161.849C39.0291 162.366 39.5853 163.1 39.3687 163.564C38.3546 163.549 36.6317 161.795 35.8687 162.672C37.4981 163.652 39.0635 164.677 40.7323 165.515C46.6054 168.626 52.8179 171.046 59.2462 172.729L62.4508 173.582C63.5289 173.848 64.6069 174.109 65.675 174.375C66.5759 174.612 67.6146 174.799 68.1265 175.282C67.9395 175.489 67.7721 175.666 67.6097 175.849L70.066 176.282L72.6258 176.617C73.1132 176.677 73.2707 176.785 73.0935 176.967C72.3945 177.16 71.0112 176.953 71.0408 177.569L74.1125 178.071C75.1412 178.199 76.1701 178.327 77.199 178.456C77.2875 178.465 77.3958 178.736 77.2974 178.84C77.1023 178.969 76.8856 179.063 76.6575 179.116C77.4672 179.27 78.2861 179.37 79.1089 179.416C81.2306 179.456 83.3571 179.377 85.4739 179.298C89.0256 179.234 92.5715 178.982 96.0968 178.544C97.1257 178.396 98.1496 178.18 99.139 177.997C99.0888 177.598 99.1206 177.192 99.2325 176.805C99.5611 176.556 99.9503 176.399 100.36 176.351C100.898 176.4 101.432 176.482 101.96 176.598C102.929 176.711 103.353 176.524 104.003 175.73C104.905 175.181 105.939 174.885 106.995 174.873C107.063 174.798 107.141 174.733 107.227 174.681C109.028 173.763 110.946 173.097 112.927 172.7C113.248 172.674 113.569 172.746 113.848 172.907C114.739 173.271 114.763 173.276 116.122 172.232L116.132 172.237C116.142 172.226 116.15 172.215 116.156 172.202C116.17 172.191 116.185 172.181 116.201 172.173H116.181C116.668 171.488 117.161 170.832 117.623 170.132C118.588 169.615 119.287 169.112 119.016 168.6C118.809 168.305 118.696 167.955 118.692 167.595C118.706 167.432 119.277 167.057 119.656 166.826C119.91 166.689 120.195 166.621 120.483 166.629C121.498 167.018 122.467 167.393 123.452 167.772C124.054 167.244 124.729 166.804 125.455 166.466C126.509 165.894 127.557 165.298 128.596 164.687C129.644 164.091 130.624 163.386 131.638 162.731C131.996 162.427 132.326 162.09 132.623 161.726C130.919 162.381 129.507 162.962 128.01 163.48C127.768 163.4 127.534 163.298 127.311 163.174C127.193 163.095 127.055 162.893 127.158 162.805C127.499 162.477 127.881 162.197 128.296 161.972C128.767 161.784 129.27 161.689 129.777 161.691C130.788 161.723 131.778 161.403 132.578 160.784C132.95 160.482 133.374 160.252 133.829 160.104C134.74 159.947 135.605 159.587 136.359 159.05C137.155 158.468 137.996 157.951 138.874 157.502C139.303 157.277 139.676 156.959 139.967 156.571C140.863 155.103 142.202 154.664 143.369 153.811C143.584 153.16 143.938 152.564 144.405 152.062C144.872 151.56 145.442 151.165 146.076 150.904C146.298 150.161 146.723 149.493 147.302 148.977C147.947 148.302 148.66 147.696 149.384 146.898C149.128 146.912 149.039 146.863 148.936 146.932C147.422 147.9 146.067 149.097 144.919 150.48C143.679 151.903 142.358 153.252 140.961 154.521C140.605 154.88 140.21 155.199 139.785 155.472C139.002 155.935 138.16 156.31 137.314 156.729C136.452 157.133 135.581 157.586 134.572 158.005C135.837 156.906 136.713 156.029 137.624 155.196C137.746 155.085 137.878 154.984 138.018 154.896C138.692 154.457 139.347 153.994 140.016 153.54C140.12 153.017 140.411 152.55 140.833 152.225C144.388 148.919 147.676 145.339 150.669 141.516C152.648 139.028 153.322 137.959 153.273 137.609C153.209 137.244 152.338 137.535 150.969 137.515C151.019 137.258 151.086 137.004 151.171 136.756C151.555 135.776 151.25 135.726 150.649 136.052C150.398 135.672 149.561 136.111 149.694 135.086C150.044 134.558 150.428 134.016 150.797 133.45C151.151 132.868 151.516 132.277 151.885 131.68C152.426 131.695 152.899 131.715 153.376 131.73C153.804 131.222 154.195 130.685 154.548 130.123C155.143 129.138 155.124 128.675 154.479 128.137C154.922 127.147 155.37 126.151 155.857 125.171C156.354 124.195 156.861 123.219 157.285 122.204C157.418 121.894 157.772 121.677 158.038 121.416C157.91 122.099 157.714 122.768 157.452 123.412C156.832 124.481 156.514 125.699 156.532 126.935C157.142 125.851 157.752 124.762 158.353 123.697C158.53 123.377 158.944 123.027 159.111 123.057C159.259 123.086 159.333 123.752 159.244 123.914C158.451 125.314 158.363 126.625 157.693 128.187C157.02 128.843 156.4 129.552 155.838 130.306C155.537 130.71 155.242 131.153 154.951 131.631C154.646 132.094 154.346 132.602 154.051 133.149C154.051 133.716 154.031 134.42 154.041 135.095C154.051 135.554 154.572 135.49 154.947 135.056C155.97 133.873 156.758 132.267 157.826 131.232L157.792 131.474L157.9 131.158L157.826 131.207C158.702 129.305 159.726 127.507 160.701 125.673L157.511 117.917C157.285 118.262 157.039 118.617 156.763 118.986C156.955 118.41 157.127 117.878 157.29 117.385L147.208 92.8836C144.586 87.3503 140.559 82.6028 135.53 79.1153C130.501 75.6278 124.645 73.5225 118.549 73.0097L98.8732 120.82V129.295C98.8732 133.08 99.1144 133.346 102.59 133.346H102.979V134.711H88.2355V133.346H88.6244C89.1911 133.36 89.7581 133.342 90.3227 133.292C86.599 129.651 83.7056 125.247 81.8408 120.383C79.976 115.518 79.1838 110.307 79.5185 105.107C79.8533 99.9071 81.3071 94.8412 83.7802 90.2562C86.2534 85.6713 89.6875 81.6758 93.8473 78.5436V51.3764L69.2589 115.552L69.4263 116.035C72.0648 123.712 72.8623 126.028 72.6408 129.359C72.5143 130.797 71.863 132.138 70.8114 133.125C69.7598 134.112 68.3817 134.677 66.9404 134.711C63.9425 134.711 61.8504 132.681 61.6092 129.547C61.3975 126.974 63.1598 122.894 65.1633 118.577L64.2379 116.237L39.5609 53.5299V128.487C39.6741 133.233 39.7775 133.233 42.4357 133.233H43.6663V134.711H33.767V133.233H35.3668C37.9069 133.233 37.9069 133.233 37.9069 128.487V49.3511L37.1636 47.518C35.8788 44.3494 35.6917 44.3494 32.5462 44.3494H32.1524V42.8365H44.764V44.3494H44.0109C43.307 44.3494 42.3471 44.3888 42.1108 44.7239C41.8204 45.1329 42.2241 46.2811 42.8295 48.0206L43.0954 48.7844L68.4024 113.329L92.9169 49.0259C93.6356 47.0695 93.7439 45.7045 93.2271 44.9653C92.8775 44.4578 92.1785 44.2015 91.1595 44.2015H89.7074V42.8365H102.979V44.2015H102.59C99.3852 44.2015 98.8733 44.4775 98.8733 48.2522V75.3553C104.019 72.6565 109.742 71.2494 115.551 71.2554C116.186 71.2554 116.816 71.2849 117.461 71.3194L127.917 45.9411L126.617 42.8365H132.076L132.175 43.078L161.321 114.029C161.321 114.034 161.321 114.039 161.326 114.039C161.454 114.216 161.587 114.394 161.725 114.566C161.815 114.327 161.893 114.084 161.957 113.837C162.006 113.65 162.488 113.245 162.641 113.31C162.803 113.374 162.852 113.842 162.872 114.211C162.864 114.524 162.799 114.833 162.68 115.123L162.503 115.566C163.31 116.567 164.152 117.538 165.038 118.469C165.127 118.508 165.205 118.592 165.304 118.602C166.574 118.73 167.327 117.503 167.578 115.005C167.594 114.628 167.565 114.251 167.489 113.881C167.849 113.236 168.208 112.59 168.597 111.88C168.046 111.368 167.229 112.009 167.012 110.777C167.386 109.362 167.519 107.879 167.775 106.42C167.943 104.929 168.277 103.462 168.769 102.044C168.83 101.716 168.858 101.383 168.853 101.049C169.04 99.3539 169.247 97.6587 169.36 95.9635C169.451 95.0598 169.354 94.147 169.074 93.2828H169.079C169.33 92.6077 169.65 92.3662 170.02 92.4254C170.069 93.2237 170.044 94.0565 170.118 94.7907C170.152 95.1061 170.468 95.3821 170.655 95.3328C170.832 95.2884 171.117 94.8203 171.167 94.4556C171.471 91.9038 171.642 89.3378 171.679 86.7682C171.693 86.0832 171.393 85.6496 171.014 85.7629L171.014 85.7629ZM5.45709 74.0002L5.07809 73.9608C5.17654 73.6454 5.23066 73.192 5.47679 73.3152C5.50091 73.5434 5.49429 73.7738 5.45709 74.0002V74.0002ZM13.2643 126.201L13.3775 126.186L13.4268 126.427L13.2643 126.201ZM17.7882 132.395C17.6455 132.218 17.5077 132.03 17.3747 131.848L17.5076 131.715L17.926 132.287C17.8768 132.326 17.798 132.41 17.7882 132.395H17.7882ZM22.0019 30.9555L21.9183 30.8471L22.2137 30.6697L22.0019 30.9555ZM137.058 157.493L137.083 157.635L136.802 157.749L137.058 157.493ZM154.627 124.998C154.493 125.17 154.35 125.335 154.198 125.491V124.934C154.33 124.848 154.47 124.775 154.617 124.717C154.646 124.708 154.656 124.964 154.627 124.998L154.627 124.998ZM154.577 117.02C154.666 116.853 154.917 116.695 155.02 116.734C155.124 116.779 155.193 117.04 155.163 117.252C155.116 117.512 155.004 117.756 154.838 117.961C154.545 118.172 154.23 118.351 153.898 118.494C154.134 118.006 154.326 117.488 154.577 117.02L154.577 117.02ZM152.092 128.098C152.121 128.044 152.269 128.034 152.318 128.078C152.348 128.116 152.369 128.16 152.378 128.207C152.388 128.254 152.386 128.303 152.372 128.349C152.018 129.586 151.333 130.557 149.758 131.7C150.861 130.069 151.496 129.098 152.092 128.098L152.092 128.098ZM127.789 160.962C127.643 161.214 127.441 161.429 127.198 161.589C126.956 161.75 126.679 161.852 126.391 161.888C125.892 162.007 125.385 162.084 124.874 162.12C124.692 162.13 124.663 161.942 124.564 161.844C124.74 161.627 124.943 161.435 125.17 161.272C125.708 161.006 126.262 160.774 126.829 160.577C127.71 160.237 128.054 160.395 127.789 160.962L127.789 160.962ZM131.682 157.276C131.331 157.497 130.964 157.693 130.585 157.862C130.658 157.606 130.732 157.355 130.831 157.024C131.221 156.841 131.622 156.682 132.032 156.546C132.386 156.468 132.214 156.886 131.682 157.276H131.682ZM150.521 136.239C150.25 136.993 149.994 137.771 149.611 138.658C149.935 138.811 150.244 138.992 150.536 139.2C150.615 139.264 150.541 139.55 150.492 139.757C150.422 139.881 150.324 139.988 150.206 140.068C149.286 140.155 148.358 140.127 147.445 139.984C147.159 139.905 147.272 139.131 147.336 138.589C147.502 138.232 147.752 137.921 148.065 137.683C148.426 137.594 148.796 137.544 149.167 137.535C149.689 137.417 150.118 136.86 150.521 136.239H150.521ZM148.089 134.889C148.016 135.24 147.907 135.584 147.765 135.914C147.618 136.112 147.419 136.264 147.189 136.352C147.14 136.048 147.118 135.739 147.125 135.431C147.558 135.189 147.824 135.041 148.089 134.889V134.889ZM146.179 141.738C146.239 141.787 146.291 141.845 146.332 141.911C146.559 142.423 146.785 142.941 147.056 143.562C146.711 143.813 146.327 144.187 146.15 144.197C145.899 144.207 145.795 143.951 145.628 143.808C145.399 143.912 145.182 144.039 144.978 144.187C144.741 144.408 144.517 144.643 144.309 144.892C143.349 145.937 142.694 146.085 142.207 145.75C142.843 144.947 143.392 144.08 143.846 143.162C144.378 142.068 145.736 141.275 146.179 141.738V141.738ZM139.086 147.997C140.19 147.052 141.132 145.933 141.877 144.685C142.502 144.616 142.118 145.37 142.153 145.784C141.598 146.811 140.809 147.693 139.849 148.356C139.288 148.76 138.756 149.332 138.18 149.795C137.949 149.746 137.718 149.692 137.496 149.643C137.846 148.903 138.54 148.519 139.086 147.997H139.086ZM137.988 149.997L137.629 150.396C137.697 150.294 137.773 150.197 137.855 150.106C137.9 150.066 137.944 150.032 137.988 149.997V149.997ZM139.918 150.677C140.109 150.531 140.329 150.427 140.563 150.372C140.589 150.682 140.513 150.992 140.346 151.254C139.937 151.741 139.472 152.179 138.963 152.56C138.225 153.187 137.332 153.605 136.379 153.772C137.599 152.786 138.732 151.697 139.918 150.677V150.677ZM134.198 152.56C134.183 152.373 134.518 151.983 134.73 151.624C134.941 151.742 135.113 151.776 135.182 151.89C135.274 152.087 135.343 152.293 135.389 152.506C134.723 153.333 133.847 153.968 132.854 154.344C133.499 153.772 134.237 153.215 134.198 152.56V152.56ZM132.677 154.472C131.886 155.395 130.948 156.181 129.9 156.798C129.492 157.039 128.847 156.901 128.98 156.532C129.146 156.191 129.373 155.884 129.649 155.625C129.89 155.432 130.155 155.271 130.437 155.147C131.126 154.762 131.89 154.532 132.677 154.472V154.472ZM127.026 154.398C128.17 153.969 129.204 153.291 130.053 152.412C129.64 153.288 129.05 154.068 128.32 154.703C127.71 155.176 127.052 155.582 126.356 155.916C125.426 156.418 124.865 156.33 124.407 156.054C125.121 155.283 126.024 154.712 127.026 154.398L127.026 154.398ZM118.446 158.902C119.379 158.222 120.473 157.796 121.621 157.665C121.867 157.645 121.901 157.971 121.99 158.158C122.014 158.212 121.891 158.355 121.842 158.439C121.599 158.611 121.34 158.759 121.069 158.882C120.232 159.134 119.41 159.354 118.603 159.543C118.401 159.587 118.13 159.533 118.116 159.424C118.133 159.319 118.17 159.219 118.227 159.129C118.284 159.04 118.358 158.962 118.446 158.902H118.446ZM113.183 164.756C113.387 164.703 113.598 164.681 113.808 164.692C113.69 164.761 113.582 164.845 113.454 164.904L112.43 165.352C112.666 165.135 112.918 164.936 113.183 164.756H113.183ZM111.042 165.988C111.416 165.816 111.8 165.658 112.184 165.5C111.969 165.745 111.73 165.968 111.47 166.166C111.23 166.23 110.98 166.254 110.732 166.235C110.824 166.139 110.928 166.056 111.042 165.988H111.042ZM110.353 163.47C110.402 163.45 110.5 163.544 110.5 163.608C110.495 163.654 110.48 163.699 110.456 163.738C110.432 163.778 110.4 163.813 110.363 163.84C109.693 164.037 109.009 164.18 108.339 164.342L108.315 164.061C108.989 163.859 109.683 163.682 110.353 163.47H110.353ZM103.589 175.676C103.657 175.681 103.725 175.69 103.791 175.706L103.215 175.721C103.339 175.698 103.464 175.683 103.589 175.676L103.589 175.676ZM86.8966 178.633L86.9064 178.48L87.3199 178.549L86.8966 178.633ZM95.7474 171.645C96.9879 171.291 97.7952 170.911 98.5976 171.192C97.7244 171.656 96.7214 171.816 95.7474 171.645V171.645ZM100.877 165.86C101.012 165.84 101.149 165.835 101.285 165.845L101.148 166.023L100.508 166.028C100.624 165.959 100.748 165.903 100.877 165.86H100.877ZM96.5744 166.668L96.919 166.88C96.6679 166.939 96.4169 167.013 96.1658 167.053C96.0871 167.062 96.0034 166.979 95.9197 166.939L96.5744 166.668ZM95.3585 169.186C95.8823 168.948 96.428 168.762 96.9879 168.629C98.5976 168.408 99.7839 168.689 101.098 168.807C101.172 168.817 101.172 168.94 101.138 169.009C101.089 169.104 101.009 169.179 100.911 169.221C100.645 169.357 100.362 169.456 100.069 169.516C98.5828 169.684 97.0765 169.65 95.6145 169.684C95.4176 169.689 95.324 169.507 95.1813 169.408C95.2355 169.334 95.2552 169.226 95.3585 169.186H95.3585ZM92.3065 177.953C92.6236 177.918 92.9424 177.9 93.2614 177.899C93.3058 177.899 93.3058 178.002 93.3254 178.056L91.9471 178.254C91.9324 178.254 91.9028 178.155 91.8831 178.101C92.0181 178.036 92.1602 177.986 92.3065 177.953L92.3065 177.953ZM79.0204 170.492C80.8417 170.389 82.5105 170.862 84.2383 170.699C85.0506 170.645 85.8431 170.606 86.6356 170.596C87.4282 170.571 88.2158 170.541 89.0182 170.571C86.9261 171.424 86.6455 171.517 84.898 171.315C83.0106 171.113 81.1065 171.127 79.2222 171.355C77.8242 171.507 76.7855 171.419 75.8355 170.827C75.486 170.61 74.8903 170.472 74.2209 170.182C76.0866 169.837 77.5585 170.482 79.0204 170.492H79.0204ZM76.2243 172.518C74.6795 172.693 73.1169 172.418 71.7251 171.724C75.0725 171.823 75.0626 171.793 76.2244 172.518H76.2243ZM64.7005 170.325C65.5817 170.507 66.448 170.724 67.4622 170.891C66.5521 170.885 65.6445 170.797 64.7498 170.63C63.7832 170.403 62.8404 170.085 61.9341 169.679C62.9334 169.96 63.8194 170.142 64.7006 170.325L64.7005 170.325ZM52.7042 169.482C52.7583 169.566 52.8666 169.664 52.842 169.714C52.8224 169.763 52.6599 169.753 52.5565 169.768L52.3989 169.536L52.7042 169.482ZM50.4841 165.914C50.6258 165.944 50.762 165.995 50.8878 166.067C50.9788 166.136 51.06 166.217 51.129 166.308C50.851 166.303 50.5833 166.202 50.3709 166.023C50.4053 165.983 50.425 165.904 50.4841 165.914L50.4841 165.914ZM41.205 161.878C41.1459 161.952 40.7324 161.918 40.5453 161.799C39.5608 161.218 38.5665 160.632 37.5819 160.045C36.6206 159.439 35.6907 158.784 34.7958 158.084C33.6144 157.182 32.6544 156.231 31.3302 155.561C30.2086 154.928 29.2178 154.087 28.4112 153.082C27.599 152.166 26.767 151.175 26.0089 150.219C25.6644 149.78 25.1328 149.258 25.2657 148.76C26.2994 149.702 27.3578 150.574 28.3472 151.505C29.3803 152.389 30.3662 153.327 31.3007 154.314C32.223 155.205 33.2121 156.024 34.2592 156.763C35.3274 157.497 36.4399 158.168 37.4933 158.917C38.6945 159.72 40.0335 160.37 41.0081 161.366C41.1804 161.524 41.2838 161.785 41.205 161.878L41.205 161.878ZM41.6825 159.863C40.8949 159.39 40.25 158.956 39.5854 158.606C38.8696 158.302 38.1697 157.962 37.4884 157.586C36.5581 156.995 35.6424 156.349 34.7564 155.684C34.3276 155.267 33.7986 154.969 33.2206 154.817C32.2262 154.689 31.6798 153.964 31.2564 153.245C30.9709 152.786 30.8577 152.353 30.1439 152.057C29.1324 151.627 28.2732 150.902 27.6777 149.978C26.9984 148.977 26.2157 148.046 25.4428 147.075C24.6602 146.119 23.7889 145.207 22.9963 144.222C22.9323 144.143 22.9569 144.01 22.9422 143.887C23.1292 143.971 23.3754 144 23.5033 144.143C26.4354 147.234 29.5592 150.138 32.8563 152.836C35.6572 155.107 38.4434 157.409 41.461 159.429C41.5446 159.488 41.5545 159.607 41.6825 159.863H41.6825ZM36.7156 153.94C36.8338 153.59 36.9125 153.353 36.9912 153.122C37.1537 153.481 37.3113 153.816 36.7156 153.94L36.7156 153.94ZM36.9223 152.969L35.5193 151.89C36.115 152.097 36.6959 152.313 36.9224 152.969H36.9223ZM33.9441 150.258C34.4402 150.736 34.9071 151.243 35.3422 151.776C34.6776 151.692 34.0131 151.658 33.3239 151.505C31.929 151.206 30.6924 150.405 29.8486 149.253C29.0068 148.095 27.7712 147.06 27.525 145.814C27.3626 145.04 26.5997 144.222 25.9154 143.453C26.2578 143.54 26.5815 143.688 26.8704 143.892L28.5687 145.557C29.1446 146.104 29.7452 146.622 30.331 147.159C31.4878 148.248 32.7332 149.229 33.9442 150.258H33.9441ZM145.313 38.3128C145.014 38.0046 144.737 37.677 144.481 37.3321C144.388 37.1892 144.393 36.8591 144.501 36.8591C144.855 36.864 145.136 37.2878 145.293 37.6623C145.382 37.8643 145.313 38.0319 145.313 38.3128L145.313 38.3128ZM144.757 30.2607C144.005 29.291 143.182 28.3785 142.296 27.5307C141.338 26.6633 140.429 25.7437 139.573 24.776C140.673 24.9962 141.658 25.6027 142.35 26.486C142.96 27.2498 143.831 27.989 144.599 28.7774C145.367 29.5708 146.032 30.4184 146.061 31.4927C145.485 30.9161 145.018 30.6057 144.757 30.2607L144.757 30.2607ZM148.567 34.4099C147.681 33.5081 147.425 32.5423 148.139 32.4979C148.208 32.493 148.35 32.5965 148.473 32.6556C148.567 32.764 148.749 32.9217 148.769 32.9956C148.918 33.5406 149.029 34.0956 149.099 34.6563C148.901 34.6285 148.716 34.5428 148.567 34.4099L148.567 34.4099ZM149.665 32.7591L149.492 32.4831L149.748 32.6852L149.665 32.7591ZM153.12 35.5828C152.938 35.3542 152.778 35.1082 152.643 34.8485C152.851 34.9609 153.046 35.0964 153.224 35.2526C153.408 35.4763 153.573 35.7153 153.716 35.9671C153.498 35.8716 153.297 35.7418 153.12 35.5828L153.12 35.5828ZM154.366 41.644C154.403 41.4275 154.454 41.2136 154.518 41.0034C154.528 40.9787 154.7 41.1364 154.794 41.2104L154.804 42.0481C154.705 41.9544 154.602 41.8657 154.366 41.644L154.366 41.644ZM159.795 58.8964L159.909 58.7288L160.002 59.0048L159.795 58.8964ZM160.667 52.3423C160.514 51.3518 160.288 50.386 160.076 49.4053C160.686 50.5782 161.198 51.7264 160.667 52.3423L160.667 52.3423ZM160.918 62.2029L161.041 62.198L161.065 62.5085L160.918 62.2029ZM166.318 90.7401C166.106 90.814 165.855 91.0702 165.693 90.9125C165.397 90.5602 165.162 90.1603 164.999 89.7298C164.914 89.4693 164.884 89.1943 164.91 88.9217C164.929 88.845 164.977 88.7788 165.044 88.7374C165.112 88.6959 165.192 88.6825 165.269 88.6999C165.498 88.8269 165.71 88.9826 165.899 89.1631C166.014 89.3851 166.106 89.6178 166.175 89.858C166.237 90.1494 166.285 90.4438 166.318 90.74L166.318 90.7401ZM164.777 84.186C164.746 83.9211 164.741 83.6537 164.762 83.3877C164.856 83.0528 164.97 82.7237 165.102 82.4022C165.272 82.7538 165.415 83.1178 165.53 83.4912C165.558 83.74 165.508 83.9915 165.387 84.2107C165.205 84.3043 164.984 84.2057 164.777 84.186H164.777ZM165.589 66.3325C165.599 66.2733 165.88 66.5592 166.121 66.7563C166.11 67.1073 166.061 67.456 165.973 67.796C165.934 67.8897 165.668 67.5891 165.501 67.4708C165.509 67.09 165.538 66.7099 165.589 66.3325L165.589 66.3325ZM165.141 81.1258C165.148 81.4991 165.135 81.8725 165.102 82.2444C164.989 81.9192 164.866 81.6038 164.767 81.2638C164.755 81.1272 164.762 80.9896 164.787 80.8548C164.91 80.9484 165.136 81.0519 165.141 81.1258L165.141 81.1258ZM164.762 77.0406C164.817 77.1498 164.857 77.2658 164.88 77.3856C164.875 77.4913 164.855 77.5958 164.821 77.696C164.768 77.5883 164.728 77.474 164.703 77.356C164.708 77.2487 164.728 77.1425 164.762 77.0407L164.762 77.0406ZM163.896 110.663C163.827 111.25 163.443 111.624 162.97 111.55C162.904 111.251 162.889 110.943 162.926 110.639C163.094 109.998 163.438 109.471 163.733 109.658C163.881 109.752 163.945 110.279 163.896 110.663L163.896 110.663ZM165.338 104.908C165.18 105.422 164.921 105.899 164.575 106.312C164.27 106.736 163.881 106.386 163.955 105.804C164.117 104.415 164.196 103.01 164.378 101.493C164.454 101.162 164.627 100.861 164.875 100.63C164.928 100.603 164.985 100.588 165.044 100.587C165.103 100.585 165.161 100.597 165.214 100.621C165.268 100.645 165.315 100.681 165.353 100.726C165.391 100.771 165.418 100.824 165.432 100.882C165.738 102.21 165.706 103.595 165.338 104.908L165.338 104.908ZM164.93 97.0575C164.732 96.1254 164.729 95.1624 164.92 94.2289C165.043 93.2729 165.387 92.7752 165.978 92.7062C166.298 92.6668 166.559 93.4158 166.362 94.0318C166.146 94.7365 165.89 95.387 165.653 96.0522L164.93 97.0575ZM166.239 108.884C166.245 109.008 166.239 109.132 166.219 109.254C166.176 109.351 166.12 109.443 166.052 109.525L166.072 109.15L166.239 108.884ZM167.411 113.97C167.288 114.389 167.155 114.803 167.002 115.212C166.726 115.946 166.411 116.276 166.106 116.118C165.825 115.971 165.698 115.566 165.85 114.842C165.913 114.538 166.014 114.243 166.15 113.965C166.224 113.827 166.48 113.783 166.505 113.901C166.667 114.63 167.007 114.443 167.411 113.97L167.411 113.97ZM167.027 75.4046C166.899 75.2568 166.667 75.0794 166.662 74.9808C166.623 74.3993 166.628 73.8277 166.618 73.2561C166.761 73.8228 166.904 74.3895 167.046 74.9611C167.059 75.1092 167.053 75.2583 167.027 75.4046L167.027 75.4046ZM167.799 81.9734C167.819 81.8354 167.898 81.6383 167.927 81.663C168.051 81.7517 168.257 81.9143 168.272 82.0621C168.321 82.6879 168.307 83.3236 168.316 84.0382C168.071 83.7608 167.896 83.4284 167.806 83.069C167.716 82.7096 167.714 82.3338 167.8 81.9734L167.799 81.9734ZM168.43 87.4532L168.42 87.7143L168.311 87.5468L168.43 87.4532ZM168.543 94.9484C168.425 95.3919 168.336 95.8699 168.188 96.5204C168.068 96.107 167.977 95.6854 167.918 95.2589C167.834 94.0318 167.937 93.6721 168.415 93.4158C168.607 93.3353 168.812 93.2918 169.02 93.2877C168.878 93.8446 168.691 94.3867 168.543 94.9484H168.543ZM169.286 79.6031C169.321 79.3124 169.375 79.3715 169.439 79.7362L169.286 79.6031ZM170.089 92.0952L170.177 91.2772C170.211 91.3744 170.232 91.4754 170.241 91.5778C170.197 91.7601 170.143 91.9276 170.089 92.0952L170.089 92.0952ZM164.516 118.858C163.724 117.991 162.97 117.094 162.252 116.178C162.246 116.2 162.237 116.221 162.227 116.242L164.103 120.805C164.056 120.684 164.021 120.558 163.999 120.43C164.051 119.963 164.181 119.509 164.383 119.085C164.416 119.003 164.461 118.927 164.516 118.858L164.516 118.858ZM128.778 48.0995L119.189 71.4525C128.757 72.4015 137.568 77.0775 143.723 84.4718L128.778 48.0995ZM115.551 72.9161C109.715 72.9086 103.974 74.3946 98.8732 77.2328V116.547L116.811 72.9259C116.398 72.9161 115.969 72.9161 115.551 72.9161L115.551 72.9161ZM81.0682 107.44C81.0759 112.144 82.043 116.797 83.9103 121.113C85.7776 125.43 88.5057 129.319 91.9275 132.543C92.4788 131.952 92.9809 130.892 93.6159 129.335V129.33L93.8472 128.768V80.6331C89.8552 83.8647 86.6357 87.9494 84.4245 92.5878C82.2134 97.2262 81.0667 102.301 81.0682 107.44L81.0682 107.44ZM66.0002 120.583C65.3011 122.086 64.7597 123.283 64.2329 124.767C63.5732 126.61 63.1942 127.921 63.1942 129.187C63.167 129.701 63.2474 130.216 63.4306 130.697C63.6137 131.178 63.8954 131.615 64.2575 131.981C64.5271 132.246 64.8466 132.454 65.1973 132.593C65.548 132.733 65.923 132.801 66.3003 132.794C68.2005 132.701 69.0078 131.745 69.0078 129.591C69.0079 128.27 68.1169 125.811 66.0002 120.583L66.0002 120.583ZM128.778 48.0995L119.189 71.4525C128.757 72.4015 137.568 77.0775 143.723 84.4718L128.778 48.0995ZM115.551 72.9161C109.715 72.9086 103.974 74.3946 98.8733 77.2329V116.547L116.811 72.9259C116.398 72.9161 115.969 72.9161 115.551 72.9161V72.9161ZM81.0682 107.441C81.076 112.144 82.0431 116.797 83.9104 121.113C85.7777 125.43 88.5058 129.319 91.9275 132.543C92.4789 131.952 92.981 130.892 93.6159 129.335V129.33L93.8473 128.768V80.6331C89.8552 83.8647 86.6357 87.9493 84.4246 92.5878C82.2134 97.2262 81.0667 102.301 81.0682 107.44V107.441ZM66.0002 120.583C65.3011 122.086 64.7597 123.284 64.233 124.767C63.5733 126.61 63.1943 127.921 63.1943 129.187C63.167 129.701 63.2475 130.216 63.4306 130.697C63.6137 131.178 63.8954 131.615 64.2576 131.981C64.5271 132.246 64.8466 132.454 65.1973 132.593C65.5481 132.733 65.923 132.801 66.3004 132.794C68.2006 132.701 69.0078 131.745 69.0078 129.591C69.0079 128.27 68.1169 125.811 66.0002 120.583L66.0002 120.583ZM128.778 48.0995L119.189 71.4525C128.757 72.4015 137.568 77.0775 143.723 84.4718L128.778 48.0995ZM115.551 72.9161C109.715 72.9086 103.974 74.3946 98.8733 77.2329V116.547L116.811 72.9259C116.398 72.9161 115.969 72.9161 115.551 72.9161V72.9161ZM81.0682 107.441C81.076 112.144 82.0431 116.797 83.9104 121.113C85.7777 125.43 88.5058 129.319 91.9275 132.543C92.4789 131.952 92.981 130.892 93.6159 129.335V129.33L93.8473 128.768V80.6331C89.8552 83.8647 86.6357 87.9493 84.4246 92.5878C82.2134 97.2262 81.0667 102.301 81.0682 107.44V107.441ZM66.0002 120.583C65.3011 122.086 64.7597 123.284 64.233 124.767C63.5733 126.61 63.1943 127.921 63.1943 129.187C63.167 129.701 63.2475 130.216 63.4306 130.697C63.6137 131.178 63.8954 131.615 64.2576 131.981C64.5271 132.246 64.8466 132.454 65.1973 132.593C65.5481 132.733 65.923 132.801 66.3004 132.794C68.2006 132.701 69.0078 131.745 69.0078 129.591C69.0079 128.27 68.1169 125.811 66.0002 120.583L66.0002 120.583ZM66.0002 120.583C65.3011 122.086 64.7597 123.284 64.233 124.767C63.5733 126.61 63.1943 127.921 63.1943 129.187C63.167 129.701 63.2475 130.216 63.4306 130.697C63.6137 131.178 63.8954 131.615 64.2576 131.981C64.5271 132.246 64.8466 132.454 65.1973 132.593C65.5481 132.733 65.923 132.801 66.3004 132.794C68.2006 132.701 69.0078 131.745 69.0078 129.591C69.0079 128.27 68.1169 125.811 66.0002 120.583L66.0002 120.583ZM66.0002 120.583C65.3011 122.086 64.7597 123.284 64.233 124.767C63.5733 126.61 63.1943 127.921 63.1943 129.187C63.167 129.701 63.2475 130.216 63.4306 130.697C63.6137 131.178 63.8954 131.615 64.2576 131.981C64.5271 132.246 64.8466 132.454 65.1973 132.593C65.5481 132.733 65.923 132.801 66.3004 132.794C68.2006 132.701 69.0078 131.745 69.0078 129.591C69.0079 128.27 68.1169 125.811 66.0002 120.583L66.0002 120.583Z" fill="#020202"/>
<path d="M84.2975 0.0973711C83.0766 0.151577 81.8312 0.102299 80.6006 0.146649C79.3853 0.13383 78.1722 0.252791 76.9825 0.501454C76.9114 0.659708 76.8634 0.827304 76.8397 0.999165C76.8692 1.5363 76.0324 1.88125 75.0232 1.70385C74.4331 1.55654 73.8514 1.37723 73.2807 1.16671C71.5627 1.4131 69.6133 1.58558 67.7034 1.97488C67.4697 2.04358 67.2438 2.13605 67.0289 2.25084C67.7597 2.53286 68.5637 2.56235 69.3131 2.33461C70.1105 2.17694 70.9326 1.91082 71.7202 1.81226C72.7096 2.46273 72.6899 2.47752 74.2209 2.41345C74.9954 2.4139 75.7671 2.50653 76.5197 2.68941C77.3125 2.89409 78.1398 2.92768 78.9466 2.78797C80.4381 2.42331 80.1526 2.99001 80.443 3.28075C80.6411 3.41878 80.872 3.50207 81.1125 3.52222C81.5211 3.41873 82.1414 3.25612 82.1708 3.10828C82.2959 2.29881 82.3732 1.48265 82.4022 0.664072C83.3524 0.742918 84.3516 0.974526 84.962 0.861186C86.6368 0.487054 88.3722 0.475294 90.052 0.826691C90.18 0.866061 90.3153 0.876199 90.4478 0.85636C90.5803 0.836521 90.7067 0.78721 90.8177 0.712051C90.9286 0.636892 91.0214 0.537794 91.0891 0.422043C91.1568 0.306291 91.1977 0.176826 91.2088 0.0431649C88.8804 0.00867493 86.5815 -0.0553919 84.2975 0.0973711ZM79.3699 1.58558C79.2567 1.56587 79.1189 1.49688 79.1287 1.4476C79.1778 1.32034 79.2477 1.20211 79.3354 1.09772C79.4487 1.11251 79.6555 1.12236 79.6653 1.15193C79.6926 1.2731 79.7025 1.39754 79.6948 1.52152C79.5902 1.55859 79.4807 1.58018 79.3699 1.58559V1.58558Z" fill="#020202"/>
<path d="M170.715 98.0366C170.679 98.3617 170.616 98.6832 170.525 98.9976C169.817 99.983 169.505 101.199 169.651 102.404C169.689 102.883 169.678 103.364 169.617 103.841C169.487 104.613 169.054 105.178 169.162 106.188C169.115 107.219 168.989 108.245 168.784 109.257C169.147 108.37 169.472 107.485 169.762 106.6C170.038 105.713 170.243 104.818 170.443 103.928C170.823 102.155 171.071 100.356 171.183 98.5458C171.162 98.3258 171.074 98.1177 170.929 97.9507C170.886 97.887 170.735 97.957 170.715 98.0366Z" fill="#020202"/>
<path d="M61.3557 5.75089C61.5976 5.859 61.8676 5.88719 62.1266 5.83137C62.9593 5.64547 63.7832 5.40471 64.612 5.18678L64.6005 5.13934C65.7783 4.87389 66.9813 4.71055 68.1537 4.44703C68.6052 4.33208 69.0398 4.15851 69.4463 3.93073C69.6601 3.82423 69.8165 3.6068 69.7413 3.4993C69.5338 3.34231 69.2736 3.27174 69.0152 3.30234C67.7349 3.47134 66.4701 3.74224 65.2328 4.11248C64.0202 4.48572 62.8476 4.94894 61.6407 5.32945C61.4665 5.38527 61.268 5.6753 61.3557 5.75089Z" fill="#020202"/>
<path d="M45.1439 10.8757L47.4931 9.80225C48.2926 9.44254 49.1356 9.12639 50.0127 8.76583L50.4091 8.07283C50.7394 7.62949 51.2153 7.31707 51.7531 7.19061C50.6665 7.09895 49.4206 7.55355 48.1175 8.07591C46.4721 8.73946 45.8263 9.73216 44.8157 10.5734C44.7437 10.6348 44.8033 10.7397 44.8606 10.7914C44.8991 10.8248 44.9443 10.8496 44.9932 10.8641C45.0421 10.8787 45.0934 10.8826 45.1439 10.8757V10.8757Z" fill="#020202"/>
<path d="M153.056 139.945C152.44 140.501 151.833 141.048 151.244 141.579C150.982 142.536 151.199 142.885 151.824 142.513C152.8 141.914 153.725 141.235 154.59 140.484C154.928 140.086 155.227 139.656 155.484 139.202C155.268 138.847 155.071 138.523 154.857 138.172C154.251 138.769 153.649 139.362 153.056 139.945Z" fill="#020202"/>
<path d="M156.731 135.526C157.264 135.462 157.852 135.405 158.536 134.35C159.273 133.209 159.877 131.978 160.891 130.146C158.957 131.357 157.824 132.946 156.672 134.977C156.584 135.138 156.623 135.539 156.731 135.526Z" fill="#020202"/>
<path d="M117.203 10.3697C117.673 10.2741 118.131 10.1249 118.567 9.92494C117.835 9.70041 117.093 9.51274 116.343 9.36262C116.048 9.31676 115.913 9.57481 115.757 9.72123C115.721 9.75435 115.883 9.94809 115.968 9.9796C116.359 10.1675 116.775 10.2989 117.203 10.3697V10.3697Z" fill="#020202"/>
<path d="M52.0029 7.11426C51.9779 7.11811 51.9557 7.12555 51.9306 7.12926C51.8675 7.14746 51.8135 7.1708 51.7531 7.19059C51.7937 7.19401 51.8379 7.18507 51.878 7.19007C51.9176 7.16311 51.9629 7.14083 52.0029 7.11426Z" fill="#020202"/>
<path d="M56.7082 5.18158C55.0351 5.5332 53.4405 6.18821 52.0029 7.11428C53.7058 6.86575 55.3216 6.20206 56.7082 5.18158V5.18158Z" fill="#020202"/>
<path d="M128.843 13.7778C128.931 13.7234 128.803 13.4038 128.648 13.2945C127.934 12.8172 127.191 12.385 126.423 12.0005C127.354 12.8323 127.717 13.2348 128.158 13.6144C128.364 13.7387 128.603 13.7957 128.843 13.7778V13.7778Z" fill="#020202"/>
<path d="M103.937 5.60409C104.169 5.64276 104.405 5.64841 104.639 5.62088C104.572 5.54132 104.541 5.44241 104.429 5.38615C104.165 5.25379 103.861 5.14178 103.572 5.02199C103.429 5.01137 103.175 4.97185 103.157 5.0065C103.015 5.25964 103.537 5.44684 103.937 5.60409Z" fill="#020202"/>
<path d="M108.869 174.832C109.568 174.56 110.351 174.341 111.101 174.102L111.296 174.075L111.128 174.094L111.059 174.108C110.37 174.15 109.689 174.27 109.027 174.466C108.374 174.616 107.716 174.788 107.071 174.906C107.467 175.117 107.921 175.204 108.869 174.832Z" fill="#020202"/>
<path d="M107.071 174.906C107.049 174.895 107.026 174.884 107.004 174.872L106.996 174.872C106.974 174.894 106.953 174.915 106.93 174.936C106.976 174.928 107.024 174.915 107.071 174.906Z" fill="#020202"/>
<path d="M136.672 19.6018C136.827 19.5663 137.093 19.5313 137.033 19.4115C136.823 19.0658 136.586 18.7364 136.326 18.4261C136.074 18.4023 135.711 18.3299 135.734 18.378C135.906 18.7153 136.103 19.0393 136.323 19.347C136.422 19.4539 136.541 19.5404 136.672 19.6018V19.6018Z" fill="#020202"/>
<path d="M118.618 7.96182C118.413 7.72872 118.178 7.5242 117.919 7.35372C117.663 7.24242 117.383 7.19861 117.106 7.22648C117.008 7.25573 117.251 7.63773 117.325 7.66112C117.725 7.78802 118.122 7.85305 118.618 7.96182Z" fill="#020202"/>
<path d="M139.567 21.5347C139.602 21.447 139.33 21.1349 139.193 20.9213C138.986 20.8906 138.623 20.761 138.612 20.8563C138.599 20.9798 138.865 21.2824 139.011 21.5082C139.208 21.5257 139.527 21.6321 139.567 21.5347Z" fill="#020202"/>
<path d="M11.7313 42.0299L11.1736 42.5256L10.801 43.3061C11.0005 43.1719 11.1826 43.0132 11.3428 42.8337C11.4949 42.5773 11.6248 42.3084 11.7313 42.0299V42.0299Z" fill="#020202"/>
<path d="M123.404 167.862C123.441 167.84 123.48 167.819 123.518 167.797L123.452 167.772C123.44 167.782 123.427 167.792 123.415 167.802C123.41 167.822 123.407 167.842 123.404 167.862Z" fill="#020202"/>
<path d="M121.797 169.029C122.078 168.99 122.355 168.924 122.623 168.833C123.493 168.461 123.344 168.168 123.404 167.862C123.008 168.088 122.602 168.307 122.234 168.552C122.068 168.69 121.921 168.851 121.797 169.029V169.029Z" fill="#020202"/>
<path d="M132.17 15.7627C132.059 15.6665 131.932 15.5906 131.795 15.5386C131.7 15.6138 131.619 15.7062 131.558 15.811C131.816 15.9636 132.074 16.1164 132.335 16.2707C132.298 16.096 132.243 15.9256 132.17 15.7627V15.7627Z" fill="#020202"/>
<path d="M167.786 62.859C167.902 63.0661 168.033 63.2635 168.18 63.4494C168.141 63.1567 168.063 62.8704 167.951 62.5973C167.825 62.3983 167.672 62.218 167.496 62.062C167.576 62.3334 167.673 62.5996 167.786 62.859Z" fill="#020202"/>
<path d="M60.8259 4.13596C60.6236 4.11035 60.4201 4.095 60.2162 4.08997C60.1387 4.14743 60.0656 4.21066 59.9976 4.27911C60.2061 4.29407 60.4146 4.31049 60.6255 4.33854L60.8259 4.13596Z" fill="#020202"/>
<path d="M140.697 153.75C140.797 153.755 141.104 153.486 141.316 153.341C141.246 153.247 141.227 153.037 141.096 153.082C140.756 153.217 140.425 153.374 140.105 153.552C140.287 153.657 140.488 153.725 140.697 153.75V153.75Z" fill="#020202"/>
<path d="M140.105 153.552C140.083 153.542 140.062 153.531 140.039 153.522L140.014 153.539C140.01 153.561 140.002 153.584 139.999 153.606C140.034 153.589 140.07 153.569 140.105 153.552Z" fill="#020202"/>
<path d="M151.754 133.825L151.967 133.48C151.849 133.444 151.727 133.425 151.604 133.424C151.525 133.522 151.455 133.626 151.396 133.736C151.514 133.765 151.631 133.795 151.754 133.825Z" fill="#020202"/>
<path d="M7.88011 121.97L7.46006 121.324L7.36755 121.828C7.5213 121.974 7.67505 122.132 7.82761 122.249C7.84703 122.263 7.86256 122.068 7.88011 121.97Z" fill="#020202"/>
<path d="M121.895 9.96339C121.961 9.93792 121.926 9.84056 121.934 9.77439L121.386 9.64966L121.547 9.89572C121.659 9.93484 121.777 9.95763 121.895 9.96339V9.96339Z" fill="#020202"/>
<path d="M85.7166 2.95377L85.8589 2.81677L85.5847 2.80988L85.7166 2.95377Z" fill="#020202"/>
<path d="M100.055 4.27428C99.9443 4.22724 99.8297 4.18861 99.7127 4.1587C99.6696 4.15043 99.6195 4.2134 99.5724 4.24377C99.6842 4.29146 99.7994 4.33101 99.9169 4.36212C99.9566 4.37034 100.009 4.30563 100.055 4.27428Z" fill="#020202"/>
<path d="M110.076 6.90675C109.955 6.83835 109.828 6.77921 109.698 6.72984C109.654 6.71608 109.584 6.78676 109.526 6.8188C109.648 6.88835 109.775 6.9492 109.905 7.0009C109.943 7.01351 110.018 6.94038 110.076 6.90675Z" fill="#020202"/>
<path d="M66.8237 175.852L67.5854 175.875L67.6085 175.85L67.5194 175.834C67.2486 175.841 66.9778 175.848 66.8237 175.852Z" fill="#020202"/>
<path d="M121.361 11.7549C121.349 11.7375 121.339 11.7194 121.327 11.7022L121.123 11.5206L121.238 11.699C121.279 11.7174 121.32 11.7369 121.361 11.7549Z" fill="#020202"/>
<path d="M122.463 12.394C122.37 12.2853 122.262 12.1894 122.143 12.1087C121.892 11.9779 121.624 11.8692 121.361 11.7549C121.462 11.9439 121.597 12.1126 121.759 12.2525C121.986 12.3326 122.223 12.3802 122.463 12.394V12.394Z" fill="#020202"/>
<path d="M19.5028 32.5014C19.5227 32.4945 19.5433 32.4858 19.5633 32.4787C19.5823 32.4583 19.6026 32.4377 19.6217 32.4173L19.5817 32.399C19.5554 32.4324 19.529 32.467 19.5028 32.5014Z" fill="#020202"/>
<path d="M18.8011 32.9923C19.0541 33.1029 19.2781 32.7959 19.5028 32.5014C19.3221 32.5582 19.1446 32.625 18.9714 32.7016C18.8976 32.7875 18.84 32.8859 18.8011 32.9923V32.9923Z" fill="#020202"/>
<path d="M156.267 127.795L156.379 127.379C156.371 127.402 156.36 127.425 156.352 127.447C156.312 127.564 156.299 127.681 156.267 127.795Z" fill="#020202"/>
<path d="M156.379 127.379C156.426 127.252 156.48 127.123 156.532 126.995C156.531 126.974 156.532 126.954 156.532 126.933L156.469 127.045L156.379 127.379Z" fill="#020202"/>
<path d="M0.955411 76.3232C0.984428 76.2217 0.989103 76.1147 0.969059 76.0111C0.96869 75.994 0.96638 75.9764 0.965814 75.9592C0.949161 75.9977 0.941959 76.038 0.923706 76.0761L0.955411 76.3232Z" fill="#020202"/>
<path d="M1.03176 76.9178L0.955429 76.3232C0.903501 76.584 0.812871 76.8758 1.03176 76.9178Z" fill="#020202"/>
<path d="M9.27235 112.725C9.23354 112.767 9.15491 112.815 9.16356 112.85C9.19849 112.964 9.24498 113.074 9.30229 113.178C9.3378 113.135 9.4099 113.091 9.4015 113.05C9.36791 112.938 9.3247 112.829 9.27235 112.725V112.725Z" fill="#020202"/>
<path d="M127.93 166.19L128.027 166.013L127.783 166.138L127.93 166.19Z" fill="#020202"/>
<path d="M146.246 150.824L146.102 150.893C146.093 150.896 146.086 150.901 146.078 150.904C146.077 150.909 146.074 150.914 146.073 150.919L146.246 150.824Z" fill="#020202"/>
<path d="M118.766 9.93683L118.571 9.9234L118.567 9.92495C118.581 9.92859 118.594 9.93263 118.608 9.93621L118.766 9.93683Z" fill="#020202"/>
<path d="M59.0859 6.37512L58.8456 6.42539L58.9549 6.51162L59.0859 6.37512Z" fill="#020202"/>
<path d="M56.7742 7.37007L56.5446 7.35669L56.4477 7.41813C56.4586 7.41745 56.47 7.41779 56.4808 7.41701L56.7742 7.37007Z" fill="#020202"/>
<path d="M30.692 148.481C30.5936 148.425 30.4912 148.377 30.3858 148.336C30.423 148.519 30.4745 148.699 30.54 148.873C30.6432 148.949 30.7552 149.013 30.8735 149.062C30.8145 148.872 30.7698 148.679 30.692 148.481Z" fill="#020202"/>
</svg>
