<svg aria-hidden="true" style="position: absolute; width: 0; height: 0; overflow: hidden;" version="1.1" xmlns="http://www.w3.org/2000/svg" xmlns:xlink="http://www.w3.org/1999/xlink">
<defs>
<symbol id="Chield-check" viewBox="0 0 32 32">
<path d="M15.596 3.008c0.942-0.389 2-0.389 2.942 0v0l8.34 3.44c1.614 0.666 2.579 2.332 2.354 4.063 0 0 0 0 0 0l-0.649 4.999c-0.483 3.721-2.388 7.111-5.316 9.46l-3.787 3.038c-1.41 1.131-3.417 1.131-4.827 0v0l-3.787-3.038c-2.927-2.348-4.832-5.738-5.316-9.46v0l-0.649-4.999c0 0 0 0 0 0-0.225-1.731 0.741-3.397 2.354-4.063v0l8.34-3.44zM18.036 4.224c-0.621-0.256-1.318-0.256-1.939 0l-8.34 3.44c-1.064 0.439-1.7 1.537-1.552 2.678v0l0.649 4.999c0.44 3.385 2.172 6.468 4.834 8.603l3.787 3.038c0.93 0.745 2.252 0.745 3.182 0l3.787-3.038c2.662-2.135 4.395-5.218 4.834-8.603l0.649-4.999c0.148-1.141-0.488-2.239-1.552-2.678h-0l-8.34-3.44c0 0 0 0 0 0z"></path>
<path d="M21.698 11.453c0.302 0.201 0.384 0.61 0.182 0.912l-4.612 6.917c-0.604 0.905-1.884 1.032-2.654 0.263l-3.080-3.080c-0.257-0.257-0.257-0.673 0-0.93s0.673-0.257 0.93 0l3.080 3.080c0.183 0.183 0.487 0.152 0.63-0.062l4.612-6.917c0.201-0.302 0.61-0.384 0.912-0.182z"></path>
</symbol>
<symbol id="credit-card" viewBox="0 0 32 32">
<path d="M1.476 8.8c0-1.719 1.454-3.058 3.179-3.058h22.691c1.725 0 3.179 1.339 3.179 3.058v14.4c0 1.719-1.454 3.058-3.179 3.058h-22.691c-1.725 0-3.179-1.339-3.179-3.058v-14.4zM4.655 7.058c-1.060 0-1.864 0.81-1.864 1.742v14.4c0 0.932 0.804 1.742 1.864 1.742h22.691c1.060 0 1.864-0.81 1.864-1.742v-14.4c0-0.932-0.803-1.742-1.864-1.742h-22.691z"></path>
<path d="M1.476 12.8c0-0.363 0.294-0.658 0.658-0.658h27.733c0.363 0 0.658 0.294 0.658 0.658s-0.294 0.658-0.658 0.658h-27.733c-0.363 0-0.658-0.294-0.658-0.658z"></path>
</symbol>
<symbol id="email" viewBox="0 0 32 32">
<path d="M0 0h32v32h-32v-32z"></path>
</symbol>
<symbol id="globe" viewBox="0 0 32 32">
<path d="M0 0h32v32h-32v-32z"></path>
</symbol>
<symbol id="icon-product" viewBox="0 0 32 32">
<path fill="#feac92" style="fill: var(--color1, #feac92)" d="M31.849 20.352c0.093 0.093 0.145 0.219 0.145 0.35s-0.052 0.257-0.145 0.35l-2.409 2.98c-0.194 0.193-1.086 0.193-1.28 0l-2.255-2.98c-0.188-0.194-0.185-0.503 0.006-0.694s0.5-0.194 0.694-0.006l1.136 1.135v-17.416l-1.136 1.135c-0.194 0.188-0.503 0.185-0.694-0.006s-0.194-0.5-0.006-0.694l2.255-2.762c0.194-0.193 1.086-0.193 1.28 0l2.409 2.762c0.095 0.092 0.15 0.219 0.151 0.352s-0.051 0.261-0.145 0.354c-0.094 0.094-0.222 0.146-0.355 0.145s-0.26-0.055-0.352-0.151l-1.136-1.135v17.416l1.136-1.135c0.093-0.093 0.219-0.145 0.35-0.145s0.257 0.052 0.35 0.145zM24.32 26.579c-0.025-0.060-0.594-0.59-0.64-0.637l-2.028-1.629c-0.194-0.188-0.503-0.185-0.694 0.006s-0.194 0.5-0.006 0.694l1.136 1.135h-19.405l1.136-1.135c0.188-0.194 0.185-0.503-0.006-0.694s-0.5-0.194-0.694-0.006l-2.478 2.265c-0.193 0.194-0.193 1.080 0 1.274l2.478 2.396c0.194 0.188 0.503 0.185 0.694-0.006s0.194-0.5 0.006-0.694l-1.136-1.136h19.405l-1.136 1.135c-0.095 0.092-0.15 0.219-0.151 0.352s0.051 0.261 0.145 0.354c0.094 0.094 0.222 0.146 0.354 0.145s0.26-0.055 0.352-0.151c1.085-0.869 1.725-1.309 2.668-2.396 0.163-0.179 0.121-1.165 0-1.274zM24.462 5.885l-8.136-3.349c0.097 1.105-0.275 2.2-1.025 3.019s-1.809 1.284-2.919 1.284-2.169-0.465-2.919-1.283c-0.75-0.818-1.122-1.913-1.026-3.018l-8.131 3.347c-0.231 0.095-0.355 0.348-0.289 0.588l1.486 5.447c0.037 0.134 0.128 0.247 0.252 0.31s0.269 0.072 0.399 0.023l3.294-1.235v11.665c0 0.131 0.052 0.257 0.145 0.35s0.219 0.145 0.35 0.145h12.88c0.131 0 0.258-0.052 0.35-0.145s0.145-0.219 0.145-0.35v-11.665l3.293 1.235c0.131 0.049 0.276 0.040 0.4-0.023s0.216-0.176 0.253-0.31l1.486-5.447c0.066-0.241-0.059-0.493-0.29-0.588z"></path>
</symbol>
<symbol id="instagram" viewBox="0 0 32 32">
<path d="M10.665 3.2c-4.116 0-7.465 3.351-7.465 7.469v10.667c0 4.116 3.351 7.465 7.469 7.465h10.667c4.116 0 7.465-3.351 7.465-7.469v-10.667c0-4.116-3.351-7.465-7.469-7.465h-10.667zM23.467 7.467c0.589 0 1.067 0.478 1.067 1.067s-0.478 1.067-1.067 1.067c-0.589 0-1.067-0.478-1.067-1.067s0.478-1.067 1.067-1.067zM16 9.6c3.53 0 6.4 2.87 6.4 6.4s-2.87 6.4-6.4 6.4c-3.53 0-6.4-2.87-6.4-6.4s2.87-6.4 6.4-6.4zM16 11.733c-1.132 0-2.217 0.45-3.017 1.25s-1.25 1.885-1.25 3.017 0.45 2.217 1.25 3.017c0.8 0.8 1.885 1.25 3.017 1.25s2.217-0.45 3.017-1.25c0.8-0.8 1.25-1.885 1.25-3.017s-0.45-2.217-1.25-3.017c-0.8-0.8-1.885-1.25-3.017-1.25z"></path>
</symbol>
<symbol id="phone" viewBox="0 0 32 32">
<path d="M0 0h32v32h-32v-32z"></path>
</symbol>
<symbol id="Regroup" viewBox="0 0 32 32">
<path d="M5.333 23.83l-0.754-0.738-0.754 0.738 0.754 0.738 0.754-0.738zM26.4 17.305c0-0.577-0.478-1.044-1.067-1.044s-1.067 0.467-1.067 1.044h2.133zM9.912 17.872l-5.333 5.22 1.508 1.477 5.333-5.22-1.508-1.476zM4.579 24.568l5.333 5.22 1.508-1.477-5.333-5.22-1.508 1.477zM5.333 24.874h13.333v-2.088h-13.333v2.088zM18.667 24.874c4.271 0 7.733-3.389 7.733-7.569h-2.133c0 3.027-2.507 5.481-5.6 5.481v2.088z"></path>
<path d="M26.667 8.17l0.754 0.738 0.754-0.738-0.754-0.738-0.754 0.738zM5.6 14.695c0 0.577 0.478 1.044 1.067 1.044s1.067-0.467 1.067-1.044h-2.133zM22.088 14.128l5.333-5.22-1.509-1.476-5.333 5.22 1.509 1.476zM27.421 7.432l-5.333-5.22-1.509 1.476 5.333 5.22 1.509-1.476zM26.667 7.126h-13.333v2.088h13.333v-2.088zM13.333 7.126c-4.271 0-7.733 3.389-7.733 7.569h2.133c0-3.027 2.507-5.481 5.6-5.481v-2.088z"></path>
</symbol>
<symbol id="telegram" viewBox="0 0 32 32">
<path fill="#000" style="fill: var(--color2, #000)" d="M16 2.667c-3.536 0-6.928 1.405-9.428 3.905s-3.905 5.892-3.905 9.428c0 3.536 1.405 6.928 3.905 9.428s5.892 3.905 9.428 3.905 6.928-1.405 9.428-3.905c2.501-2.5 3.905-5.892 3.905-9.428s-1.405-6.928-3.905-9.428c-2.5-2.5-5.892-3.905-9.428-3.905z"></path>
<path fill="#fff" style="fill: var(--color3, #fff)" d="M22.633 10l-2.497 12.751c0 0-0.107 0.583-0.83 0.583-0.384 0-0.582-0.183-0.582-0.183l-5.409-4.489-2.647-1.334-3.397-0.903c0 0-0.605-0.175-0.605-0.675 0-0.417 0.622-0.615 0.622-0.615l14.211-5.645c-0.001-0.001 0.434-0.157 0.751-0.156 0.195 0 0.417 0.083 0.417 0.333 0 0.167-0.033 0.333-0.033 0.333z"></path>
<path fill="#b0bec5" style="fill: var(--color4, #b0bec5)" d="M15.333 20.337l-2.284 2.249c0 0-0.099 0.077-0.232 0.080-0.046 0.001-0.095-0.006-0.146-0.029l0.643-3.977 2.019 1.676z"></path>
<path fill="#cfd8dc" style="fill: var(--color5, #cfd8dc)" d="M19.931 12.131c-0.113-0.147-0.321-0.173-0.467-0.062l-8.797 5.265c0 0 1.404 3.928 1.618 4.608s0.387 0.697 0.387 0.697l0.643-3.977 6.555-6.064c0.147-0.111 0.174-0.32 0.063-0.467z"></path>
</symbol>
</defs>
</svg>
